{
  "accessors": [
    {
      "bufferView": 2,
      "componentType": 5126,
      "count": 65532,
      "max": [
        0.7927899956703186,
        4.2073040008544922,
        0.44555899500846863
      ],
      "min": [
        -0.13496099412441254,
        3.3109889030456543,
        -0.63420397043228149
      ],
      "type": "VEC3"
    },
    {
      "bufferView": 2,
      "byteOffset": 786384,
      "componentType": 5126,
      "count": 65532,
      "max": [
        0.99999856948852539,
        0.99994558095932007,
        0.9999881386756897
      ],
      "min": [
        -0.99997997283935547,
        -0.99986201524734497,
        -0.99995547533035278
      ],
      "type": "VEC3"
    },
    {
      "bufferView": 3,
      "componentType": 5126,
      "count": 65532,
      "max": [
        0.99997889995574951,
        0.99996024370193481,
        0.99999606609344482,
        1
      ],
      "min": [
        -0.99999010562896729,
        -0.99999171495437622,
        -0.99997955560684204,
        -1
      ],
      "type": "VEC4"
    },
    {
      "bufferView": 1,
      "componentType": 5126,
      "count": 65532,
      "max": [
        0.99627500772476196,
        0.99323499202728271
      ],
      "min": [
        0,
        0.0015030000358819962
      ],
      "type": "VEC2"
    },
    {
      "bufferView": 0,
      "componentType": 5125,
      "count": 361005,
      "max": [
        65531
      ],
      "min": [
        0
      ],
      "type": "SCALAR"
    },
    {
      "bufferView": 2,
      "byteOffset": 1572768,
      "componentType": 5126,
      "count": 65532,
      "max": [
        0.43788599967956543,
        4.2059869766235352,
        0.53172397613525391
      ],
      "min": [
        -0.077992998063564301,
        3.2516720294952393,
        -0.64859998226165771
      ],
      "type": "VEC3"
    },
    {
      "bufferView": 2,
      "byteOffset": 2359152,
      "componentType": 5126,
      "count": 65532,
      "max": [
        0.9999854564666748,
        0.99988764524459839,
        0.99999678134918213
      ],
      "min": [
        -0.99976062774658203,
        -0.99988776445388794,
        -0.9999920129776001
      ],
      "type": "VEC3"
    },
    {
      "bufferView": 3,
      "byteOffset": 1048512,
      "componentType": 5126,
      "count": 65532,
      "max": [
        0.99999481439590454,
        0.99999076128005981,
        0.99998927116394043,
        1
      ],
      "min": [
        -0.99991995096206665,
        -0.99998295307159424,
        -0.99978369474411011,
        -1
      ],
      "type": "VEC4"
    },
    {
      "bufferView": 1,
      "byteOffset": 524256,
      "componentType": 5126,
      "count": 65532,
      "max": [
        0.99998700618743896,
        0.99824202060699463
      ],
      "min": [
        0,
        0
      ],
      "type": "VEC2"
    },
    {
      "bufferView": 0,
      "byteOffset": 1444020,
      "componentType": 5125,
      "count": 338580,
      "max": [
        65531
      ],
      "min": [
        0
      ],
      "type": "SCALAR"
    },
    {
      "bufferView": 2,
      "byteOffset": 3145536,
      "componentType": 5126,
      "count": 65532,
      "max": [
        0.34685400128364563,
        4.2061219215393066,
        0.53748100996017456
      ],
      "min": [
        -0.47627601027488708,
        3.2567191123962402,
        -0.6544029712677002
      ],
      "type": "VEC3"
    },
    {
      "bufferView": 2,
      "byteOffset": 3931920,
      "componentType": 5126,
      "count": 65532,
      "max": [
        0.99993938207626343,
        0.99988913536071777,
        0.99998778104782104
      ],
      "min": [
        -0.99941951036453247,
        -0.99998098611831665,
        -0.9999464750289917
      ],
      "type": "VEC3"
    },
    {
      "bufferView": 3,
      "byteOffset": 2097024,
      "componentType": 5126,
      "count": 65532,
      "max": [
        0.99992662668228149,
        0.99997347593307495,
        0.99974274635314941,
        1
      ],
      "min": [
        -0.99988514184951782,
        -0.99995726346969604,
        -0.99991554021835327,
        -1
      ],
      "type": "VEC4"
    },
    {
      "bufferView": 1,
      "byteOffset": 1048512,
      "componentType": 5126,
      "count": 65532,
      "max": [
        0.97779601812362671,
        0.99529701471328735
      ],
      "min": [
        0,
        0.00010900000052060932
      ],
      "type": "VEC2"
    },
    {
      "bufferView": 0,
      "byteOffset": 2798340,
      "componentType": 5125,
      "count": 336429,
      "max": [
        65531
      ],
      "min": [
        0
      ],
      "type": "SCALAR"
    },
    {
      "bufferView": 2,
      "byteOffset": 4718304,
      "componentType": 5126,
      "count": 65532,
      "max": [
        -0.019140999764204025,
        4.2008180618286133,
        0.42772099375724792
      ],
      "min": [
        -0.56252902746200562,
        3.2915830612182617,
        -0.6320040225982666
      ],
      "type": "VEC3"
    },
    {
      "bufferView": 2,
      "byteOffset": 5504688,
      "componentType": 5126,
      "count": 65532,
      "max": [
        0.99955111742019653,
        0.99986964464187622,
        0.99998962879180908
      ],
      "min": [
        -0.99996489286422729,
        -0.99999946355819702,
        -0.99999099969863892
      ],
      "type": "VEC3"
    },
    {
      "bufferView": 3,
      "byteOffset": 3145536,
      "componentType": 5126,
      "count": 65532,
      "max": [
        0.9999120831489563,
        0.99999904632568359,
        0.99949127435684204,
        1
      ],
      "min": [
        -0.99998986721038818,
        -0.9999701976776123,
        -0.9999348521232605,
        -1
      ],
      "type": "VEC4"
    },
    {
      "bufferView": 1,
      "byteOffset": 1572768,
      "componentType": 5126,
      "count": 65532,
      "max": [
        0.99885499477386475,
        0.99465799331665039
      ],
      "min": [
        0.00010699999984353781,
        0.00066299998434260488
      ],
      "type": "VEC2"
    },
    {
      "bufferView": 0,
      "byteOffset": 4144056,
      "componentType": 5125,
      "count": 336321,
      "max": [
        65531
      ],
      "min": [
        0
      ],
      "type": "SCALAR"
    },
    {
      "bufferView": 2,
      "byteOffset": 6291072,
      "componentType": 5126,
      "count": 25670,
      "max": [
        -0.42592298984527588,
        4.1102700233459473,
        0.30054199695587158
      ],
      "min": [
        -0.58892601728439331,
        3.3202118873596191,
        -0.3319379985332489
      ],
      "type": "VEC3"
    },
    {
      "bufferView": 2,
      "byteOffset": 6599112,
      "componentType": 5126,
      "count": 25670,
      "max": [
        0.99986177682876587,
        0.99949836730957031,
        0.99972712993621826
      ],
      "min": [
        -0.99998486042022705,
        -0.99974024295806885,
        -0.99984610080718994
      ],
      "type": "VEC3"
    },
    {
      "bufferView": 3,
      "byteOffset": 4194048,
      "componentType": 5126,
      "count": 25670,
      "max": [
        0.99995523691177368,
        0.99930787086486816,
        0.99998742341995239,
        1
      ],
      "min": [
        -0.99990248680114746,
        -0.99999940395355225,
        -0.9999651312828064,
        -1
      ],
      "type": "VEC4"
    },
    {
      "bufferView": 1,
      "byteOffset": 2097024,
      "componentType": 5126,
      "count": 25670,
      "max": [
        0.99947398900985718,
        0.99788099527359009
      ],
      "min": [
        0.00079600000753998756,
        0.0007789999945089221
      ],
      "type": "VEC2"
    },
    {
      "bufferView": 0,
      "byteOffset": 5489340,
      "componentType": 5125,
      "count": 127662,
      "max": [
        25669
      ],
      "min": [
        0
      ],
      "type": "SCALAR"
    }
  ],
  "asset": {
    "extras": {
      "author": "British Library (https://sketchfab.com/britishlibrary)",
      "license": "CC-BY-4.0 (http://creativecommons.org/licenses/by/4.0/)",
      "source": "https://sketchfab.com/models/de2df5e74ae54f7fb98002f5b13ef90f",
      "title": "Qur’an Case - OR 13706 B"
    },
    "generator": "Sketchfab-3.23.2",
    "version": "2.0"
  },
  "bufferViews": [
    {
      "buffer": 0,
      "byteLength": 5999988,
      "byteOffset": 0,
      "name": "floatBufferViews",
      "target": 34963
    },
    {
      "buffer": 0,
      "byteLength": 2302384,
      "byteOffset": 5999988,
      "byteStride": 8,
      "name": "floatBufferViews",
      "target": 34962
    },
    {
      "buffer": 0,
      "byteLength": 6907152,
      "byteOffset": 8302372,
      "byteStride": 12,
      "name": "floatBufferViews",
      "target": 34962
    },
    {
      "buffer": 0,
      "byteLength": 4604768,
      "byteOffset": 15209524,
      "byteStride": 16,
      "name": "floatBufferViews",
      "target": 34962
    }
  ],
  "buffers": [
    {
      "byteLength": 19814292,
      "uri": "scene.bin"
    }
  ],
  "images": [
    {
      "uri": "textures/bl5.1001_baseColor.jpeg"
    }
  ],
  "materials": [
    {
      "doubleSided": true,
      "emissiveFactor": [
        0,
        0,
        0
      ],
      "name": "bl5.1001",
      "pbrMetallicRoughness": {
        "baseColorFactor": [
          1,
          1,
          1,
          1
        ],
        "baseColorTexture": {
          "index": 0,
          "texCoord": 0
        },
        "metallicFactor": 0,
        "roughnessFactor": 1
      }
    }
  ],
  "meshes": [
    {
      "primitives": [
        {
          "attributes": {
            "NORMAL": 1,
            "POSITION": 0,
            "TANGENT": 2,
            "TEXCOORD_0": 3
          },
          "indices": 4,
          "material": 0,
          "mode": 4
        }
      ]
    },
    {
      "primitives": [
        {
          "attributes": {
            "NORMAL": 6,
            "POSITION": 5,
            "TANGENT": 7,
            "TEXCOORD_0": 8
          },
          "indices": 9,
          "material": 0,
          "mode": 4
        }
      ]
    },
    {
      "primitives": [
        {
          "attributes": {
            "NORMAL": 11,
            "POSITION": 10,
            "TANGENT": 12,
            "TEXCOORD_0": 13
          },
          "indices": 14,
          "material": 0,
          "mode": 4
        }
      ]
    },
    {
      "primitives": [
        {
          "attributes": {
            "NORMAL": 16,
            "POSITION": 15,
            "TANGENT": 17,
            "TEXCOORD_0": 18
          },
          "indices": 19,
          "material": 0,
          "mode": 4
        }
      ]
    },
    {
      "primitives": [
        {
          "attributes": {
            "NORMAL": 21,
            "POSITION": 20,
            "TANGENT": 22,
            "TEXCOORD_0": 23
          },
          "indices": 24,
          "material": 0,
          "mode": 4
        }
      ]
    }
  ],
  "nodes": [
    {
      "children": [
        1
      ],
      "name": "RootNode (gltf orientation matrix)",
      "rotation": [
        -0.70710678118654746,
        -0,
        -0,
        0.70710678118654757
      ]
    },
    {
      "children": [
        2
      ],
      "matrix": [
        1,
        0,
        0,
        0,
        0,
        -0.27826032042503357,
        -0.96050572395324707,
        0,
        0,
        0.96050572395324707,
        -0.27826032042503357,
        0,
        0,
        4.8234071731567383,
        3.5074641704559326,
        1
      ],
      "name": "RootNode (model correction matrix)"
    },
    {
      "children": [
        3,
        4,
        5,
        6,
        7
      ],
      "name": "bl5.obj.cleaner.materialmerger.gles"
    },
    {
      "mesh": 0,
      "name": ""
    },
    {
      "mesh": 1,
      "name": ""
    },
    {
      "mesh": 2,
      "name": ""
    },
    {
      "mesh": 3,
      "name": ""
    },
    {
      "mesh": 4,
      "name": ""
    }
  ],
  "samplers": [
    {
      "magFilter": 9729,
      "minFilter": 9987,
      "wrapS": 10497,
      "wrapT": 10497
    }
  ],
  "scene": 0,
  "scenes": [
    {
      "name": "OSG_Scene",
      "nodes": [
        0
      ]
    }
  ],
  "textures": [
    {
      "sampler": 0,
      "source": 0
    }
  ]
}

