{
  "accessors": [
    {
      "bufferView": 2,
      "componentType": 5126,
      "count": 31528,
      "max": [
        0.19073300063610077,
        3.2311489582061768,
        -0.11870799958705902
      ],
      "min": [
        -0.32651299238204956,
        2.7468760013580322,
        -0.36617600917816162
      ],
      "type": "VEC3"
    },
    {
      "bufferView": 2,
      "byteOffset": 378336,
      "componentType": 5126,
      "count": 31528,
      "max": [
        0.99947911500930786,
        0.99990689754486084,
        0.99996066093444824
      ],
      "min": [
        -0.99999886751174927,
        -0.99998962879180908,
        -0.99998986721038818
      ],
      "type": "VEC3"
    },
    {
      "bufferView": 3,
      "componentType": 5126,
      "count": 31528,
      "max": [
        0.99997925758361816,
        0.99996501207351685,
        0.99996393918991089,
        1
      ],
      "min": [
        -0.99996751546859741,
        -0.99999541044235229,
        -0.99950301647186279,
        -1
      ],
      "type": "VEC4"
    },
    {
      "bufferView": 1,
      "componentType": 5126,
      "count": 31528,
      "max": [
        0.90754997730255127,
        0.99804002046585083
      ],
      "min": [
        0.0019499999471008778,
        0.0019499999471008778
      ],
      "type": "VEC2"
    },
    {
      "bufferView": 0,
      "componentType": 5125,
      "count": 186786,
      "max": [
        31527
      ],
      "min": [
        0
      ],
      "type": "SCALAR"
    }
  ],
  "asset": {
    "extras": {
      "author": "British Library (https://sketchfab.com/britishlibrary)",
      "license": "CC-BY-4.0 (http://creativecommons.org/licenses/by/4.0/)",
      "source": "https://sketchfab.com/models/89424b2ea9f745b1900f88c3b3c03003",
      "title": "Block"
    },
    "generator": "Sketchfab-3.23.2",
    "version": "2.0"
  },
  "bufferViews": [
    {
      "buffer": 0,
      "byteLength": 747144,
      "byteOffset": 0,
      "name": "floatBufferViews",
      "target": 34963
    },
    {
      "buffer": 0,
      "byteLength": 252224,
      "byteOffset": 747144,
      "byteStride": 8,
      "name": "floatBufferViews",
      "target": 34962
    },
    {
      "buffer": 0,
      "byteLength": 756672,
      "byteOffset": 999368,
      "byteStride": 12,
      "name": "floatBufferViews",
      "target": 34962
    },
    {
      "buffer": 0,
      "byteLength": 504448,
      "byteOffset": 1756040,
      "byteStride": 16,
      "name": "floatBufferViews",
      "target": 34962
    }
  ],
  "buffers": [
    {
      "byteLength": 2260488,
      "uri": "scene.bin"
    }
  ],
  "images": [
    {
      "uri": "textures/LUMP3.1001_baseColor.jpeg"
    }
  ],
  "materials": [
    {
      "doubleSided": true,
      "emissiveFactor": [
        0,
        0,
        0
      ],
      "name": "LUMP3.1001",
      "pbrMetallicRoughness": {
        "baseColorFactor": [
          1,
          1,
          1,
          1
        ],
        "baseColorTexture": {
          "index": 0,
          "texCoord": 0
        },
        "metallicFactor": 0.84927591459999996,
        "roughnessFactor": 0.69683689019999995
      }
    }
  ],
  "meshes": [
    {
      "primitives": [
        {
          "attributes": {
            "NORMAL": 1,
            "POSITION": 0,
            "TANGENT": 2,
            "TEXCOORD_0": 3
          },
          "indices": 4,
          "material": 0,
          "mode": 4
        }
      ]
    }
  ],
  "nodes": [
    {
      "children": [
        1
      ],
      "name": "RootNode (gltf orientation matrix)",
      "rotation": [
        -0.70710678118654746,
        -0,
        -0,
        0.70710678118654757
      ]
    },
    {
      "children": [
        2
      ],
      "matrix": [
        -0.9419935941696167,
        -0.22132560610771179,
        -0.25231540203094482,
        0,
        0.28484395146369934,
        -0.12957414984703064,
        -0.94977599382400513,
        0,
        0.17751619219779968,
        -0.96655339002609253,
        0.18510128557682037,
        0,
        -0.94020712375640869,
        3.1269569396972656,
        2.6242010593414307,
        1
      ],
      "name": "RootNode (model correction matrix)"
    },
    {
      "children": [
        3
      ],
      "name": "LUMP3.OBJ.cleaner.materialmerger.gles"
    },
    {
      "mesh": 0,
      "name": ""
    }
  ],
  "samplers": [
    {
      "magFilter": 9729,
      "minFilter": 9987,
      "wrapS": 10497,
      "wrapT": 10497
    }
  ],
  "scene": 0,
  "scenes": [
    {
      "name": "OSG_Scene",
      "nodes": [
        0
      ]
    }
  ],
  "textures": [
    {
      "sampler": 0,
      "source": 0
    }
  ]
}

